<svg width="46" height="32" viewBox="0 0 46 32" fill="none" xmlns="http://www.w3.org/2000/svg">
<g clip-path="url(#clip0_5_2)">
<path d="M24.3245 23.9675L38.2912 0.763878C38.3323 0.691205 38.3985 0.635727 38.4776 0.607657C38.5567 0.579588 38.6434 0.580817 38.7216 0.611119C38.7998 0.641421 38.8644 0.698756 38.9035 0.772565C38.9425 0.846375 38.9533 0.931691 38.934 1.0128L36.1469 14.2058C36.1318 14.2779 36.094 14.3433 36.0389 14.3925L24.8662 24.4031C24.8374 24.4384 24.8018 24.4678 24.7616 24.4894C24.7213 24.5111 24.6772 24.5247 24.6317 24.5294C24.5861 24.5341 24.5401 24.5299 24.4962 24.517C24.4523 24.5041 24.4114 24.4827 24.3759 24.4541C24.3403 24.4255 24.3107 24.3902 24.2889 24.3503C24.2671 24.3104 24.2534 24.2666 24.2486 24.2214C24.2438 24.1762 24.2481 24.1305 24.2611 24.087C24.2741 24.0434 24.2956 24.0028 24.3245 23.9675Z" fill="#4378CB"/>
<path d="M34.5844 31.845L45.94 15.3502C45.9696 15.3069 45.9889 15.2574 45.9964 15.2056C46.0039 15.1538 45.9995 15.101 45.9835 15.0511L41.2664 0.243542C41.2435 0.170225 41.1967 0.106539 41.1334 0.0625204C41.07 0.0185018 40.9937 -0.00334727 40.9165 0.000416107C40.8392 0.00417949 40.7655 0.0333413 40.7068 0.0833065C40.648 0.133272 40.6078 0.2012 40.5923 0.276386L33.9538 31.5787C33.936 31.6576 33.9466 31.7402 33.9838 31.8121C34.021 31.8841 34.0824 31.9408 34.1574 31.9724C34.2323 32.0041 34.3161 32.0086 34.3941 31.9853C34.4721 31.9621 34.5394 31.9124 34.5844 31.845Z" fill="#44AA00"/>
<path d="M21.675 23.9675L7.70825 0.763858C7.66638 0.692692 7.60026 0.638712 7.52183 0.611646C7.44339 0.58458 7.35779 0.586209 7.28045 0.61624C7.20312 0.64627 7.13914 0.702726 7.10005 0.775433C7.06095 0.848139 7.04931 0.932313 7.06723 1.01278L9.8543 14.2058C9.87014 14.2776 9.90784 14.3428 9.9623 14.3925L21.1367 24.4031C21.1973 24.4659 21.2795 24.5037 21.367 24.509C21.4544 24.5144 21.5406 24.4868 21.6085 24.4319C21.6764 24.377 21.7209 24.2987 21.7332 24.2126C21.7456 24.1265 21.7248 24.039 21.675 23.9675Z" fill="#44AA00"/>
<path d="M11.4168 31.845L0.0612109 15.3502C0.0313227 15.307 0.011715 15.2576 0.00386906 15.2058C-0.00397687 15.154 0.000144205 15.1011 0.0159209 15.0511L4.73479 0.243542C4.75765 0.170225 4.80444 0.106539 4.86779 0.0625204C4.93114 0.0185018 5.00745 -0.00334727 5.08469 0.000416107C5.16194 0.00417949 5.23572 0.0333413 5.29442 0.0833065C5.35312 0.133272 5.3934 0.2012 5.40891 0.276386L12.0456 31.5787C12.0624 31.6571 12.0512 31.7388 12.014 31.8099C11.9767 31.881 11.9158 31.937 11.8415 31.9685C11.7673 31.9999 11.6843 32.0048 11.6069 31.9822C11.5294 31.9597 11.4622 31.9112 11.4168 31.845Z" fill="#4378CB"/>
</g>
<defs>
<clipPath id="clip0_5_2">
<rect width="46" height="32" fill="white"/>
</clipPath>
</defs>
</svg>
